<svg version="1.1" id="Layer_1" xmlns="http://www.w3.org/2000/svg" xmlns:xlink="http://www.w3.org/1999/xlink" x="0px" y="0px"
	 width="100%" viewBox="0 0 1024 1024" enable-background="new 0 0 1024 1024" xml:space="preserve">
<path fill="#000000" opacity="1.000000" stroke="none" 
	d="
M873.438354,557.565430 
	C906.319885,594.114319 925.022095,636.707642 931.410583,684.952515 
	C938.587219,739.149597 930.057434,790.781250 906.109619,839.821167 
	C895.891113,860.746460 882.520081,879.658447 866.800171,896.824219 
	C832.243530,934.559326 790.520569,960.593018 740.382812,971.852722 
	C683.075745,984.722595 628.913147,976.466431 578.646606,945.408630 
	C553.617493,929.944092 532.975769,909.827087 516.254333,885.709717 
	C496.404633,857.080322 484.005615,825.519958 478.161560,791.096130 
	C476.480499,781.194153 476.817078,771.531494 476.567108,761.735352 
	C476.393982,754.949341 475.673950,754.263245 469.074158,754.218933 
	C460.741760,754.162903 452.406952,754.221436 444.077698,754.032532 
	C440.379547,753.948669 439.065704,755.448181 439.160522,759.077698 
	C439.343231,766.072571 439.111115,773.077942 439.273499,780.073792 
	C439.363647,783.957642 437.826355,785.492981 433.931854,785.267883 
	C429.945892,785.037415 425.930786,785.107239 421.937531,785.269470 
	C418.573914,785.406189 416.994263,784.056824 417.002319,780.650574 
	C417.054077,758.821228 417.076965,736.991699 417.076355,715.162231 
	C417.076233,711.242615 418.668396,709.378845 422.829895,709.701599 
	C426.307861,709.971436 429.839661,709.934998 433.320923,709.675415 
	C437.590942,709.357117 439.431335,710.926270 439.266113,715.344238 
	C439.054626,721.001343 439.347076,726.675415 439.269836,732.340149 
	C439.226868,735.491272 440.514282,736.905701 443.710236,736.879639 
	C452.875488,736.804688 462.043274,736.744202 471.206818,736.887024 
	C475.008881,736.946228 476.155487,735.146301 476.084259,731.703796 
	C475.970520,726.206482 476.011993,720.705627 476.018219,715.206299 
	C476.021118,712.638367 476.024628,710.077759 479.539001,709.648071 
	C480.817352,709.491760 481.695129,708.667847 481.414185,707.215759 
	C481.149902,705.849731 480.072662,705.370178 478.835083,705.272522 
	C477.008759,705.128601 475.176025,704.987061 473.345764,704.983459 
	C447.865906,704.932861 422.385895,704.947937 396.906189,704.862122 
	C368.106873,704.765076 339.299164,704.071655 310.510803,704.560974 
	C270.682953,705.237915 230.860794,704.598022 191.037643,704.906616 
	C188.188583,704.928711 184.698746,705.772949 184.635254,700.920898 
	C184.597672,698.048706 185.483612,696.594727 188.579376,696.578491 
	C196.062668,696.539307 203.553543,696.022461 211.026138,696.234497 
	C232.832077,696.853210 254.635635,695.992310 276.428955,696.284607 
	C292.924103,696.505798 309.416870,696.566589 325.909546,696.579651 
	C396.558533,696.635681 467.209839,696.938232 537.856079,696.489319 
	C609.824463,696.031921 681.791138,696.137756 753.758606,696.129944 
	C783.071594,696.126709 812.384460,696.468811 841.697632,696.609924 
	C851.117737,696.655273 851.854797,696.089355 851.599731,686.795593 
	C851.133179,669.800476 852.594727,652.859802 852.697754,635.885254 
	C852.773193,623.460266 846.845398,614.468262 836.878723,607.546082 
	C828.062073,601.422485 818.127869,597.423889 808.768799,592.350464 
	C799.009644,587.060242 797.654419,573.389160 802.827209,565.221069 
	C807.307495,558.146545 818.505127,558.296814 823.213013,565.349731 
	C826.826538,570.763062 827.294983,576.939331 827.105103,583.112122 
	C826.972595,587.419006 828.328979,589.224426 832.774963,588.950317 
	C837.257141,588.674072 841.774048,588.787476 846.268616,588.940002 
	C849.855957,589.061768 851.573486,587.459045 851.574829,583.960022 
	C851.580261,569.795227 851.518250,555.630249 851.569153,541.465637 
	C851.588562,536.059448 848.113770,536.079468 844.144714,536.084290 
	C779.316162,536.163086 714.487488,536.184204 649.658875,536.195007 
	C499.002899,536.220093 348.346924,536.233826 197.690964,536.247314 
	C188.661545,536.248108 187.613983,537.222351 187.413895,546.127014 
	C187.353989,548.792114 187.371063,551.459290 187.372498,554.125488 
	C187.373337,555.687439 187.598297,557.481689 189.217133,557.901672 
	C193.553528,559.026672 192.995529,562.311401 192.991638,565.467590 
	C192.959412,591.620422 192.958923,617.773254 192.904785,643.926025 
	C192.885162,653.408569 192.811172,662.892334 192.608765,672.372253 
	C192.565857,674.382202 192.766098,677.144592 189.406799,676.879700 
	C186.192551,676.626282 186.357422,673.945557 186.738052,671.953186 
	C189.053253,659.834778 183.260941,653.680542 173.012512,647.533203 
	C109.888611,609.669312 69.562477,554.150452 49.708786,483.613007 
	C37.608746,440.623291 36.347424,396.968842 43.408546,352.990540 
	C51.879215,300.233246 72.445534,252.777039 106.324715,211.363358 
	C137.503555,173.250626 175.522293,144.284637 221.705978,126.402626 
	C257.181793,112.666626 293.922180,106.451469 331.804932,108.938095 
	C382.014771,112.233871 427.623474,128.835052 468.421509,158.551483 
	C503.283325,183.944122 530.425415,215.951767 550.401855,253.988144 
	C564.824341,281.449432 574.240295,310.661041 578.436829,341.475861 
	C581.293945,362.455627 582.836670,383.461884 581.410645,404.674835 
	C578.661499,445.571869 568.568359,484.373474 549.368225,520.694458 
	C546.408875,526.292603 547.261475,527.046326 553.691040,527.765015 
	C572.143127,529.827393 589.152954,523.577271 606.583740,519.447876 
	C628.948608,514.149597 651.598389,510.610687 674.526306,508.562378 
	C702.293823,506.081726 730.056824,505.211334 757.813599,507.758575 
	C782.279907,510.003845 806.301453,514.475952 828.349731,526.164307 
	C832.808044,528.527710 837.495544,527.232849 842.078918,527.592468 
	C843.233276,527.683044 844.409058,527.539062 845.572754,527.466736 
	C859.125793,526.623840 859.187195,526.621643 859.271057,540.038086 
	C859.288086,542.752747 860.041809,544.638245 862.157898,546.480713 
	C866.039856,549.860779 869.547424,553.670715 873.438354,557.565430 
M74.430748,307.457733 
	C77.552109,299.947601 80.406082,292.311707 83.863312,284.959503 
	C88.071136,276.011078 92.786804,267.301453 97.282799,258.488525 
	C87.263466,273.937439 78.682693,290.061127 73.562737,308.544647 
	C70.856720,315.534576 68.212173,322.541199 67.679024,330.124146 
	C68.780014,322.454224 73.740089,315.878845 74.430748,307.457733 
M524.577820,725.659424 
	C545.341553,702.790466 568.846252,702.358826 593.874695,717.367920 
	C595.874146,716.129944 595.755127,714.280151 596.153748,712.729248 
	C597.775391,706.419434 596.857666,705.068726 590.545959,705.036926 
	C574.049866,704.953735 557.552979,705.050720 541.056946,704.962280 
	C537.091675,704.940979 534.444153,705.806091 533.734680,710.415527 
	C533.359131,712.855286 532.971436,716.055969 529.279236,717.226318 
	C528.675110,713.271118 532.284180,709.752136 529.437073,705.328430 
	C524.629333,711.886902 526.375427,719.529724 523.473328,726.433777 
	C516.147888,737.485901 516.823853,749.250732 520.323914,761.271362 
	C517.304810,749.075745 518.898438,737.360413 524.577820,725.659424 
M168.040665,309.500305 
	C168.037537,355.993744 168.038101,402.487213 168.027725,448.980652 
	C168.025940,456.979462 167.966263,464.978271 167.956039,472.977081 
	C167.951752,476.330811 168.839905,478.931366 172.939194,478.934265 
	C189.102661,478.945770 205.266083,478.997223 221.429535,479.026917 
	C224.536774,479.032623 225.974625,477.366425 226.005936,474.352478 
	C226.028427,472.187042 226.042603,470.021362 226.039749,467.855835 
	C226.011963,446.692993 226.016479,425.529968 225.915985,404.367462 
	C225.897385,400.449280 226.972427,397.490417 230.239807,394.903992 
	C236.368149,390.052826 242.282440,384.889801 247.921326,379.476837 
	C251.464828,376.075317 253.840134,377.009949 256.560669,380.227844 
	C262.578430,387.345673 268.701874,394.374298 274.794495,401.428711 
	C296.129913,426.132050 317.514923,450.792847 338.743317,475.587830 
	C340.968872,478.187286 343.377197,479.067535 346.536774,479.058777 
	C366.367218,479.003784 386.197845,479.013275 406.028107,478.930786 
	C407.920990,478.922913 410.464600,479.710632 411.425232,477.442596 
	C412.431152,475.067566 410.286743,473.468414 408.858521,471.908234 
	C400.424377,462.694702 391.920105,453.545349 383.490051,444.328125 
	C361.002625,419.740692 338.515106,395.153229 316.085449,370.513184 
	C309.807678,363.616760 303.677429,356.583374 297.592560,349.515564 
	C295.668732,347.280975 294.462982,345.241913 297.775757,342.463745 
	C333.250214,312.713898 368.581696,282.793518 403.933075,252.897125 
	C405.655365,251.440567 408.294250,250.030334 407.219818,247.354248 
	C406.301910,245.068054 403.519653,245.570404 401.422729,245.388809 
	C399.601410,245.231079 397.759430,245.288834 395.926605,245.290665 
	C378.762146,245.307785 361.597137,245.416153 344.433716,245.293777 
	C340.521667,245.265884 337.412079,246.327545 334.466583,248.913849 
	C300.427429,278.802277 266.324707,308.618256 232.231049,338.444550 
	C230.773270,339.719879 229.404266,341.813385 227.166534,340.722534 
	C225.236359,339.781555 226.565460,337.730927 226.468369,336.167206 
	C226.375565,334.672119 226.113373,333.173340 226.169708,331.685394 
	C227.216583,304.034454 226.336349,276.371765 226.691895,248.716675 
	C226.782272,241.686493 225.332840,240.359268 218.132935,240.350632 
	C204.480499,240.334244 190.828003,240.346375 177.175583,240.376358 
	C169.647415,240.392883 168.208405,241.900894 168.194580,249.510468 
	C168.158829,269.173798 168.108124,288.837158 168.040665,309.500305 
M701.500000,704.974426 
	C690.004944,705.007996 678.509888,705.071045 667.014832,705.068298 
	C649.356140,705.064148 631.697449,704.996582 614.038757,705.001465 
	C610.855225,705.002319 607.613159,704.988220 606.091370,708.744141 
	C604.040710,713.805115 603.785278,719.495117 600.598206,724.184509 
	C600.231323,724.724304 600.771240,726.130066 601.229553,726.943359 
	C607.614746,738.274414 607.772705,750.069519 603.966858,762.177063 
	C603.615295,763.295471 603.191162,764.366638 603.669189,765.563293 
	C608.664978,778.069580 613.752808,790.417114 621.838074,801.480530 
	C645.989746,834.528076 688.455505,848.197815 727.154175,834.849121 
	C776.860168,817.703552 805.148743,762.553711 790.432800,711.827820 
	C788.932312,706.655640 786.449646,704.711609 780.966492,704.770874 
	C754.813354,705.053406 728.655884,704.943665 701.500000,704.974426 
M349.544403,399.971069 
	C360.531036,412.042847 371.580780,424.058044 382.476776,436.211090 
	C387.655457,441.987305 389.348724,441.987457 392.460114,434.935486 
	C406.394531,403.353088 405.984650,371.887329 390.706238,340.928162 
	C383.831573,326.997833 373.797241,315.419220 361.221558,306.179108 
	C357.311951,303.306488 353.726501,301.446350 348.986511,305.763550 
	C335.448181,318.094360 321.459717,329.929779 307.711548,342.031921 
	C303.313690,345.903259 303.152771,348.075439 307.105347,352.526581 
	C321.036652,368.215179 335.071106,383.812164 349.544403,399.971069 
M338.737213,483.457031 
	C329.676422,473.036316 320.611908,462.618866 311.555695,452.194183 
	C293.219208,431.086945 274.885681,409.977112 256.554626,388.865143 
	C252.784012,384.522522 250.894318,384.359741 246.623184,388.112061 
	C243.124680,391.185669 239.920135,394.678680 236.108627,397.290039 
	C231.141830,400.692841 230.318130,405.363647 230.338623,410.728943 
	C230.396515,425.880493 230.434769,441.033478 230.266891,456.183533 
	C230.226669,459.813354 231.441864,462.432922 233.890244,465.026306 
	C250.531174,482.652344 271.100830,492.289795 295.019073,494.392151 
	C309.244720,495.642548 323.247040,493.278076 336.691223,488.305237 
	C338.351807,487.691010 341.566345,487.167633 338.737213,483.457031 
M652.160889,857.337219 
	C677.825256,868.227417 704.147278,870.158264 730.706726,861.643738 
	C762.147644,851.564453 786.108398,831.898438 802.507446,803.090027 
	C818.580444,774.854370 823.564270,744.876648 816.975098,713.056885 
	C815.281433,704.878418 814.607483,704.570129 806.228210,704.738770 
	C801.692444,704.830139 799.826965,707.034363 800.840210,711.490967 
	C802.020630,716.682678 803.083008,721.839539 803.544189,727.192810 
	C807.045288,767.828918 793.688782,801.663147 762.141968,827.548157 
	C740.687439,845.152161 715.464539,853.814941 687.760437,850.592773 
	C645.439697,845.670410 616.733215,821.730347 600.531982,782.799072 
	C596.677612,773.536987 596.321838,773.791992 588.560547,780.281616 
	C588.323059,780.480225 588.214539,780.833130 588.051697,781.117554 
	C598.272888,815.026184 620.580933,841.724854 652.160889,857.337219 
M491.752625,785.516602 
	C488.716034,786.054749 489.984070,788.229492 490.220978,789.843994 
	C492.722778,806.895203 497.544617,823.345459 504.250244,839.152283 
	C522.230408,881.535950 550.400024,915.549866 590.334961,938.701904 
	C640.671631,967.884338 694.366760,972.542786 750.016541,957.100769 
	C789.036072,946.273438 822.666260,926.247253 851.149353,897.314026 
	C876.346680,871.718506 895.100098,842.106995 907.348633,808.520935 
	C921.455505,769.839417 925.181824,729.874390 919.799194,689.067566 
	C913.745728,643.174561 895.633362,602.799316 864.450867,568.431824 
	C863.137939,566.984741 862.021057,565.196655 859.673828,565.028320 
	C857.195190,567.662109 859.111755,569.425720 860.796204,571.360840 
	C873.963013,586.486694 886.058044,602.389771 894.499878,620.704529 
	C917.659912,670.950684 922.978882,723.106445 910.929321,777.093933 
	C904.479370,805.992676 893.313049,832.793762 877.195374,857.719482 
	C859.902954,884.461975 837.101929,905.883789 812.059570,924.721924 
	C787.090881,943.504578 758.052307,953.987244 727.316223,959.389099 
	C700.439209,964.112671 673.606201,963.610718 647.021606,957.233887 
	C605.513672,947.277405 570.754028,926.014465 543.271912,893.425659 
	C518.631165,864.205933 502.298645,830.900269 496.587646,792.767273 
	C496.166901,789.957825 496.314392,786.514282 491.752625,785.516602 
M547.194336,730.705811 
	C543.578064,734.733154 542.418030,739.638733 541.734741,744.859619 
	C540.065857,757.611877 547.556396,768.807983 559.893127,770.342529 
	C570.717896,771.689026 580.324890,766.508606 583.294800,752.323425 
	C585.378357,742.372070 581.093018,731.296814 573.530457,726.894409 
	C565.600342,722.278015 555.386597,723.566650 547.194336,730.705811 
M277.546478,291.295624 
	C276.836578,287.645508 274.325928,289.719849 272.883575,290.143524 
	C257.350739,294.705963 244.158920,303.050018 233.401077,315.177551 
	C230.928650,317.964783 230.288437,321.356689 230.440796,324.955933 
	C230.511353,326.622681 230.503555,328.469299 232.189194,329.357788 
	C234.001816,330.313232 235.331421,328.930603 236.594986,327.873199 
	C241.825500,323.496063 247.270050,319.339325 252.192261,314.637146 
	C260.362335,306.832306 269.717194,300.352020 277.546478,291.295624 
M134.950775,214.472000 
	C139.478958,209.823578 144.022430,205.189896 148.522247,200.514175 
	C149.408691,199.593094 151.249619,198.327545 150.346085,197.315491 
	C146.880554,193.433563 150.678436,192.299240 152.591904,190.425125 
	C154.530457,188.526428 156.512146,186.671783 158.474945,184.797836 
	C134.698257,202.108353 116.953560,224.640640 101.750099,249.413544 
	C105.995743,251.935150 107.901131,249.106232 109.779327,246.298981 
	C117.192406,235.219040 125.892807,225.156540 134.950775,214.472000 
M249.343338,135.663666 
	C272.602386,128.481293 296.304321,124.126335 320.750397,124.600731 
	C275.113861,121.457481 233.705276,134.448761 195.044525,157.668564 
	C212.355743,149.168457 230.008133,141.396118 249.343338,135.663666 
M528.060852,524.225891 
	C538.456543,508.572754 545.687500,491.571899 550.151123,473.385406 
	C542.522888,489.185181 535.867065,505.423370 527.006104,520.607056 
	C526.322083,521.779114 525.368286,523.359009 528.060852,524.225891 
M61.193821,363.883636 
	C61.832733,359.676453 62.471645,355.469269 63.110554,351.262054 
	C57.577011,376.879333 54.780037,402.695526 57.539307,428.881348 
	C57.073772,407.420441 57.924232,386.024750 61.193821,363.883636 
M499.680298,754.101624 
	C500.006531,740.473328 499.332062,726.828918 500.401672,713.209106 
	C500.566620,711.108521 500.886871,708.860962 499.662109,706.868652 
	C498.733398,705.357971 497.298370,705.153992 495.733337,705.456421 
	C494.715515,705.653137 493.768646,706.143982 493.564606,707.246887 
	C493.227783,709.067627 494.617188,709.517212 495.948425,709.786743 
	C498.344513,710.271729 498.485657,711.917603 498.465088,713.922546 
	C498.386566,721.573242 498.419098,729.225159 498.415405,736.876587 
	C498.411835,744.276672 498.414673,751.676819 498.414673,759.076904 
	C498.742126,759.092041 499.069611,759.107178 499.397064,759.122314 
	C499.488861,757.734070 499.580627,756.345825 499.680298,754.101624 
M150.470734,232.931641 
	C146.060547,237.349731 141.825485,241.888565 139.994110,248.132050 
	C147.866959,238.703506 157.250381,230.586899 163.768372,220.065582 
	C158.662766,223.372711 154.793549,227.881516 150.470734,232.931641 
M513.563416,225.930222 
	C507.075195,217.447205 500.469208,209.073532 491.962891,202.459930 
	C500.536835,212.984772 510.080963,222.674927 517.501465,234.166306 
	C517.867615,233.885620 518.233765,233.604935 518.599915,233.324234 
	C517.055481,231.054901 515.511108,228.785568 513.563416,225.930222 
M158.559219,235.069824 
	C157.247787,237.060730 154.031006,238.023941 155.088516,242.181534 
	C159.863174,238.757156 163.555557,235.299225 166.245117,229.445847 
	C162.257507,230.366531 161.030212,232.966370 158.559219,235.069824 
M171.686066,175.295883 
	C172.606674,174.052628 174.560913,173.524353 174.401367,171.451767 
	C169.602798,173.288605 163.188629,178.527267 160.942337,182.715607 
	C164.647491,180.192398 167.908585,177.971603 171.686066,175.295883 
M132.360214,228.044708 
	C133.222336,226.735703 135.416595,226.073624 134.646133,223.672653 
	C127.686401,228.645889 125.459648,231.529449 125.250542,235.770935 
	C128.236176,234.014694 129.707001,230.941116 132.360214,228.044708 
M152.523865,245.138870 
	C152.503723,244.975372 152.518036,244.796478 152.453705,244.652756 
	C152.390289,244.511047 152.169601,244.287125 152.150192,244.299911 
	C148.407578,246.767380 144.990845,249.479874 145.050461,254.744949 
	C147.491440,251.719742 149.932419,248.694519 152.523865,245.138870 
M531.497375,255.631165 
	C531.655823,255.665558 531.832825,255.759415 531.967407,255.717407 
	C532.096985,255.676971 532.297180,255.431870 532.271423,255.385910 
	C529.748169,250.881897 527.955688,245.884232 523.827454,242.435944 
	C526.851807,246.390152 528.399048,251.177689 531.497375,255.631165 
M375.543488,514.568970 
	C376.191864,513.929443 377.331482,513.583374 376.803497,511.897644 
	C373.469147,513.324646 370.355286,514.927856 367.364594,517.474304 
	C370.388763,517.320068 372.874146,516.660950 375.543488,514.568970 
M552.983521,305.281189 
	C552.037781,302.404266 551.092102,299.527374 550.146362,296.650452 
	C549.888794,296.742981 549.631226,296.835510 549.373657,296.928009 
	C550.944580,301.703491 552.515442,306.478943 554.086365,311.254425 
	C554.298279,311.198578 554.510132,311.142761 554.722046,311.086914 
	C554.232300,309.384644 553.742554,307.682373 552.983521,305.281189 
M383.329376,506.513702 
	C382.809662,507.266541 381.858704,507.985962 383.333771,509.046265 
	C385.431915,507.888062 387.762634,506.941315 388.482330,503.139862 
	C386.457336,504.432404 385.131805,505.278473 383.329376,506.513702 
z"/>
<path fill="#000000" opacity="1.000000" stroke="none" 
	d="
M601.836975,405.000000 
	C601.809387,348.344696 601.781250,292.189423 601.761841,236.034134 
	C601.759705,229.748474 601.798828,229.739365 608.233948,229.746124 
	C643.060181,229.782715 677.888489,229.594971 712.711731,229.936127 
	C732.384766,230.128845 751.064087,235.057587 767.735596,245.682495 
	C791.747131,260.985321 804.979309,283.581451 810.190063,311.222778 
	C811.642517,318.927521 812.416931,326.675964 812.373169,334.538055 
	C812.259155,355.033295 813.202515,375.577209 812.105530,396.014862 
	C810.074585,433.853607 795.268250,464.989655 760.992493,484.330139 
	C746.887085,492.289276 731.439209,496.604980 715.258240,497.309235 
	C679.625427,498.860168 643.961731,497.806763 608.311951,498.025208 
	C602.202454,498.062653 601.840210,497.634979 601.838257,491.482727 
	C601.829407,462.821808 601.837158,434.160919 601.836975,405.000000 
M751.599243,385.421997 
	C751.275940,365.791504 752.403015,346.150055 750.780518,326.525696 
	C748.777954,302.304016 733.473267,285.117584 709.654968,281.243134 
	C696.440186,279.093506 683.073669,280.773346 669.780640,280.418427 
	C664.115601,280.267212 663.225830,281.400299 663.224792,287.217682 
	C663.220947,308.529205 663.236389,329.840729 663.242737,351.152252 
	C663.251953,381.787720 663.278137,412.423218 663.241455,443.058624 
	C663.237488,446.385040 663.517761,449.031708 667.884277,448.977081 
	C680.866211,448.814728 693.933105,449.692261 706.812134,448.496826 
	C723.296570,446.966736 736.322632,438.899231 744.211121,423.701233 
	C750.299377,411.971405 751.155640,399.231079 751.599243,385.421997 
z"/>
<path fill="#000000" opacity="1.000000" stroke="none" 
	d="
M474.124023,588.621277 
	C478.810913,588.822327 479.028900,585.370483 479.585999,582.549194 
	C480.875275,576.019714 481.814331,569.415283 485.048431,563.447632 
	C485.980560,561.727661 486.766968,559.878540 488.832428,559.469360 
	C489.912537,560.320862 489.820587,561.160034 489.442352,561.915955 
	C483.600800,573.589172 483.107361,586.332458 482.529297,598.923950 
	C481.827362,614.214050 482.062256,629.532349 484.177002,644.757141 
	C485.525238,654.463379 488.194092,663.611206 494.678833,671.273987 
	C495.072327,671.738953 495.236633,672.397888 495.714874,673.401611 
	C492.587402,674.119507 491.202454,672.236084 489.868591,670.515198 
	C483.417969,662.192688 481.231323,652.335571 479.652405,642.222534 
	C478.233398,633.133606 479.032867,623.940002 478.095673,614.836121 
	C477.929321,613.220093 478.413696,611.487183 476.520294,609.227295 
	C469.279694,614.639038 462.000153,620.079956 454.278442,625.851318 
	C457.299530,628.575256 460.207581,627.855896 462.866943,627.820312 
	C472.366882,627.692871 472.457794,627.644043 472.274231,637.276611 
	C472.070038,647.988892 471.151703,658.610901 465.618958,668.158813 
	C463.572906,671.689636 461.172638,675.068359 456.681580,675.551270 
	C455.924530,674.590698 456.109314,673.936096 456.593750,673.459900 
	C467.221558,663.014343 467.878967,649.550598 467.997589,635.918091 
	C468.019012,633.455627 466.889679,632.273621 464.360992,632.282349 
	C458.532013,632.302551 452.701813,632.277405 446.873962,632.169006 
	C443.598358,632.108093 442.444946,633.908508 442.383240,636.830261 
	C442.284790,641.491821 442.196136,646.143860 441.328308,650.756836 
	C439.926910,658.205627 435.737671,662.544312 429.053741,663.267029 
	C421.759766,664.055725 417.057922,661.000366 414.190491,653.475464 
	C411.658813,646.831726 411.289978,639.742188 411.155914,632.830872 
	C410.785034,613.708313 409.968414,594.543579 412.660370,575.487915 
	C413.132263,572.147339 414.095001,568.978516 415.768341,566.065125 
	C420.646637,557.571655 432.924072,557.241821 438.222931,565.489136 
	C442.097626,571.519836 442.279022,578.359375 442.332092,585.229065 
	C442.397858,593.740112 442.452606,593.746826 451.041046,593.794189 
	C454.871582,593.815308 458.708008,593.671631 462.531342,593.839844 
	C466.355957,594.008118 467.934357,592.460754 467.871399,588.572876 
	C467.717712,579.082275 467.810120,569.587708 467.800903,560.094727 
	C467.799774,558.928955 467.743591,557.761780 467.783569,556.597717 
	C467.835022,555.098328 467.769867,553.312866 469.803406,553.172729 
	C472.243134,553.004517 472.253601,554.994568 472.258423,556.656128 
	C472.284058,565.483398 472.201691,574.311157 472.272430,583.137878 
	C472.287445,585.008972 471.509735,587.232300 474.124023,588.621277 
M433.474579,657.000061 
	C438.699249,651.432739 438.195648,644.794678 437.525391,637.145874 
	C431.850739,640.136841 426.841553,642.597595 422.033539,645.403015 
	C420.205078,646.469788 416.846863,646.687500 417.242615,649.648193 
	C417.704376,653.102417 419.185760,656.416626 422.619019,658.184143 
	C426.157928,660.005981 429.637024,659.951843 433.474579,657.000061 
z"/>
<path fill="#000000" opacity="1.000000" stroke="none" 
	d="
M373.016602,662.981323 
	C373.015411,666.475098 373.081696,669.475342 372.986664,672.470520 
	C372.936340,674.057922 373.213898,676.179016 370.811737,676.254456 
	C368.221893,676.335876 368.703522,674.132080 368.693085,672.586609 
	C368.635803,664.092041 368.487000,655.592102 368.723022,647.103882 
	C368.854156,642.386902 366.889771,640.326050 362.323608,640.318542 
	C345.793884,640.291382 348.241089,638.915588 348.022247,653.753174 
	C347.928833,660.087280 347.866241,660.262024 341.648438,660.285583 
	C336.484955,660.305176 331.319611,660.196472 326.158325,660.303162 
	C323.174622,660.364807 321.883270,659.030579 321.898468,656.144348 
	C321.952881,645.817993 322.005951,635.491455 322.019287,625.165039 
	C322.024170,621.384033 324.450592,621.004272 327.402679,621.019897 
	C336.730164,621.069153 346.062317,620.869690 355.384125,621.104065 
	C360.053925,621.221497 362.254486,619.660400 361.838196,614.799622 
	C361.611572,612.153687 361.540985,609.444336 361.841187,606.813965 
	C362.421387,601.730652 359.710754,600.344055 355.352417,600.442810 
	C346.364563,600.646484 337.370239,600.692322 328.390686,601.081909 
	C323.753204,601.283142 321.728241,599.797180 321.893158,594.853882 
	C322.198517,585.702698 322.101166,576.534119 321.991486,567.374878 
	C321.946198,563.593567 323.372986,561.866150 327.264343,561.959167 
	C332.423950,562.082458 337.595917,562.057251 342.751892,561.841309 
	C346.457764,561.686035 347.954193,563.406067 347.884857,566.866760 
	C347.784821,571.856445 347.746368,576.850830 347.482574,581.832764 
	C347.164551,587.838562 348.460236,589.438843 354.270477,589.662842 
	C367.463898,590.171448 367.644409,589.998718 367.666382,576.857361 
	C367.677795,570.028076 367.657043,563.198547 367.726288,556.369812 
	C367.742310,554.789612 367.428375,552.603455 369.861450,552.616699 
	C372.139008,552.629089 372.157990,554.682617 372.163208,556.343750 
	C372.189850,564.838501 372.076324,573.334595 372.201965,581.827454 
	C372.235352,584.085815 371.285522,587.409790 375.128540,587.603027 
	C378.354889,587.765259 378.326782,584.961548 378.820984,582.662476 
	C380.286285,575.846313 381.376617,568.899475 384.890167,562.707764 
	C386.156952,560.475342 387.428741,558.188477 390.813538,557.840942 
	C381.442566,576.452576 381.007111,596.326782 381.372803,616.264221 
	C381.738617,636.207336 382.096802,656.226074 395.574249,673.963867 
	C390.872131,673.612793 389.354431,670.860840 387.688049,668.647095 
	C386.104858,666.543701 384.949158,664.086731 383.813385,661.686890 
	C382.556061,659.030334 381.642517,656.114075 377.786346,657.768250 
	C375.187958,653.149902 379.993591,647.654297 374.691193,643.422302 
	C371.573853,649.804382 373.844696,656.326782 373.016602,662.981323 
z"/>
<path fill="#000000" opacity="1.000000" stroke="none" 
	d="
M365.996399,738.784546 
	C371.028076,740.206299 375.813751,741.172607 380.239105,743.007874 
	C387.663849,746.087036 393.489777,751.021851 394.194611,759.703308 
	C394.945587,768.953796 391.440033,776.275757 383.206146,781.030273 
	C370.992493,788.082947 358.012207,787.269592 344.903229,784.654968 
	C339.142365,783.505920 333.859772,781.048218 328.791351,778.104553 
	C326.255096,776.631470 325.055023,775.016357 326.989075,772.105957 
	C329.098297,768.931824 330.171967,764.264954 333.050598,762.625549 
	C336.132965,760.870056 339.201233,765.380127 342.505951,766.707703 
	C348.918640,769.283752 355.389832,771.244690 362.377472,770.602722 
	C364.343109,770.422180 366.357208,770.054932 368.193909,769.362000 
	C370.595642,768.455994 372.611664,766.930298 372.747711,763.992249 
	C372.881134,761.110779 370.742950,760.005859 368.649261,758.910583 
	C365.069000,757.037720 361.162537,756.167419 357.254059,755.360596 
	C351.870056,754.249207 346.444122,753.189514 341.478790,750.785522 
	C334.370880,747.344177 329.192841,742.315552 328.657898,733.779480 
	C328.082886,724.605164 331.466858,717.530640 339.477875,712.869568 
	C353.918762,704.467590 378.155518,706.345337 391.992889,717.230042 
	C389.466888,721.869324 386.889771,726.602356 384.142883,731.647278 
	C376.355896,727.301758 368.716736,723.739807 359.910767,724.238159 
	C358.913666,724.294617 357.900909,724.222778 356.918762,724.368225 
	C353.643768,724.853271 350.352905,725.871521 349.779114,729.541443 
	C349.162201,733.487366 352.422577,734.955627 355.498749,735.961304 
	C358.808807,737.043396 362.220886,737.813477 365.996399,738.784546 
z"/>
<path fill="#000000" opacity="1.000000" stroke="none" 
	d="
M267.816223,641.899536 
	C267.103271,638.046875 266.397949,634.628723 265.812500,631.190125 
	C264.615997,624.162476 259.717072,620.096863 253.165329,616.945557 
	C257.063141,614.261169 260.729584,613.459778 263.494629,610.947327 
	C269.788452,605.228333 272.797241,597.854004 273.514801,589.762451 
	C274.628815,577.200439 274.309418,564.711121 266.393524,553.834229 
	C266.133667,553.477112 266.158661,552.912781 265.981384,552.143372 
	C268.720825,551.513306 270.003937,553.360596 271.190338,554.983398 
	C273.768860,558.510376 275.585327,562.385315 276.355011,566.763611 
	C277.195221,571.543091 279.686798,573.095581 284.947083,572.841492 
	C289.795227,572.607361 288.541290,568.985474 288.788879,566.228088 
	C288.981903,564.078369 288.889526,561.903564 289.066101,559.751587 
	C289.154877,558.669617 289.865540,557.945129 291.067383,557.964111 
	C292.252563,557.982849 292.914825,558.704529 293.069855,559.781433 
	C293.234711,560.926758 293.261230,562.099670 293.258911,563.260315 
	C293.188110,598.571716 293.102783,633.883057 293.028931,669.194458 
	C293.012451,677.070557 293.023560,677.075378 285.369568,677.046326 
	C275.218689,677.007690 275.080627,677.038818 272.878693,667.248169 
	C271.019958,658.983521 269.530792,650.635681 267.816223,641.899536 
z"/>
<path fill="#000000" opacity="1.000000" stroke="none" 
	d="
M797.719543,649.820007 
	C796.724121,637.178894 796.722961,637.068970 784.321411,637.197693 
	C771.789795,637.327698 773.799744,635.296936 773.310364,647.993164 
	C773.033813,655.167480 773.981506,662.185303 776.129639,669.256226 
	C772.215271,668.266235 771.801636,667.837036 770.396973,662.759949 
	C769.868042,660.848267 769.678101,658.845276 769.220154,656.910828 
	C768.532043,654.004028 767.104370,651.707031 763.237366,650.826294 
	C759.355835,659.945862 756.710999,670.248352 746.120483,674.534790 
	C744.884705,675.034973 743.656799,675.649719 742.401550,674.307861 
	C742.514587,673.901001 742.496033,673.200684 742.786926,673.031128 
	C756.342773,665.129883 759.528320,651.384644 761.334167,637.692932 
	C763.596130,620.542297 763.816772,603.160522 761.680237,585.898682 
	C760.402039,575.571899 757.733948,565.650208 751.090637,557.245178 
	C750.738159,556.799377 750.686584,556.115723 750.100403,554.363220 
	C757.135376,557.649963 759.721497,563.193481 761.714844,568.793396 
	C763.728516,574.450195 764.832764,580.430664 767.052307,586.319397 
	C770.708130,576.993469 768.533142,565.664917 777.028870,558.024292 
	C778.598572,559.906494 777.556885,561.066467 777.098633,562.237305 
	C772.847961,573.098267 772.195862,584.294922 774.440735,595.614929 
	C776.190247,604.437500 781.417480,611.068909 789.177185,615.433899 
	C797.584045,620.163147 806.318909,624.308350 814.738708,629.015869 
	C824.280701,634.350769 827.217041,640.619629 825.578796,650.894653 
	C824.372131,658.462708 820.215637,662.747681 813.477722,663.369751 
	C805.974976,664.062439 801.423706,661.075195 798.678711,653.603638 
	C798.279419,652.516846 798.054321,651.366150 797.719543,649.820007 
M767.445923,628.145447 
	C763.697693,635.552246 764.125061,642.377319 768.506714,644.352844 
	C770.224182,640.336487 768.080872,635.274658 772.012573,632.056763 
	C771.182068,630.004028 769.778748,628.916565 767.445923,628.145447 
z"/>
<path fill="#000000" opacity="1.000000" stroke="none" 
	d="
M733.962646,629.801941 
	C733.484924,636.406311 733.054810,642.511902 731.334778,648.492432 
	C728.210693,659.354919 719.665955,660.994019 711.562622,660.242310 
	C707.661682,659.880371 708.692444,656.715271 708.689514,654.464966 
	C708.660889,632.342957 708.746704,610.220703 708.777283,588.098572 
	C708.787170,580.946594 708.848816,573.791199 708.654846,566.643738 
	C708.552368,562.866882 710.218750,561.743164 713.757935,561.792480 
	C724.952820,561.948547 731.228882,567.735229 732.339661,579.047119 
	C733.982239,595.773682 733.896423,612.551636 733.962646,629.801941 
M721.315002,611.193970 
	C714.766418,609.297974 713.475708,610.074402 713.391907,616.750977 
	C713.245972,628.375732 713.409729,640.004211 713.292664,651.629578 
	C713.255249,655.347351 715.038696,656.265930 718.287598,655.754944 
	C724.220398,654.821899 726.297607,650.413574 727.612061,645.378113 
	C729.598816,637.767029 729.855347,629.993103 729.794983,622.172546 
	C729.732605,614.096436 729.830017,614.095703 721.315002,611.193970 
M714.971069,566.592834 
	C712.104248,574.715454 712.761353,582.893982 714.623413,591.080872 
	C714.660828,591.245605 715.196411,591.297058 715.885254,591.534058 
	C718.497253,587.932251 719.553284,583.640564 720.547424,579.354126 
	C720.890930,577.872986 721.172363,576.694153 722.593262,575.657776 
	C726.405823,572.877075 726.116028,570.222412 721.929199,567.900330 
	C720.031067,566.847595 717.987427,566.118896 714.971069,566.592834 
z"/>
<path fill="#000000" opacity="1.000000" stroke="none" 
	d="
M242.373123,652.777527 
	C243.850433,660.669922 245.271347,668.140625 246.886444,676.632324 
	C239.356522,674.814026 233.149368,671.107910 225.874893,670.938110 
	C225.688156,671.943298 225.438766,672.720703 225.421082,673.503357 
	C225.388290,674.954285 225.212265,676.221924 223.377838,676.299011 
	C221.232147,676.389282 220.977432,674.868652 220.975586,673.293701 
	C220.957947,658.315979 220.962387,643.338196 220.978470,628.360474 
	C220.981049,625.974487 222.107666,624.891357 224.621506,624.653687 
	C233.367706,623.826904 237.341049,626.489990 239.227615,635.205444 
	C240.455780,640.879211 241.300323,646.636169 242.373123,652.777527 
z"/>
<path fill="#000000" opacity="1.000000" stroke="none" 
	d="
M245.450928,583.769043 
	C245.400681,585.529419 245.378387,586.859314 245.338654,588.188599 
	C244.875427,603.686523 237.105621,605.875977 225.103500,606.062012 
	C222.231888,606.106567 220.870270,604.709534 220.884521,601.786316 
	C220.942886,589.816833 220.973434,577.846985 220.939987,565.877502 
	C220.929703,562.196960 222.729294,561.053528 226.224930,561.061890 
	C240.131348,561.095215 245.328049,567.027588 245.450928,583.769043 
z"/>
<path fill="#000000" opacity="1.000000" stroke="none" 
	d="
M615.684570,577.004761 
	C615.689026,575.174927 615.402344,573.761963 615.751221,572.528809 
	C616.766418,568.940491 612.822327,563.456177 618.747559,561.876831 
	C626.619080,559.778748 634.261108,563.486816 637.036377,569.581604 
	C638.614624,573.047668 638.161682,576.771851 638.771301,580.355957 
	C639.593994,585.192627 638.870605,590.037231 637.801331,594.697998 
	C635.762939,603.582397 626.934448,608.473633 618.184326,606.165222 
	C615.414062,605.434326 615.707397,603.391602 615.696777,601.458313 
	C615.652832,593.473694 615.681702,585.488708 615.684570,577.004761 
z"/>
<path fill="#000000" opacity="1.000000" stroke="none" 
	d="
M519.110596,561.832764 
	C530.014526,556.986877 538.595459,561.294312 540.641174,572.579163 
	C541.437622,576.972595 541.647095,581.510376 541.725952,585.989441 
	C542.103882,607.459839 543.294006,628.960876 540.358826,650.352051 
	C539.244446,658.473145 534.377747,662.860596 526.834778,663.126160 
	C520.251770,663.357910 515.229614,659.071167 513.398804,651.437134 
	C512.270630,646.733032 511.775513,641.910156 511.759827,637.082275 
	C511.701294,619.085388 511.624084,601.086731 511.836090,583.092041 
	C511.900208,577.647583 512.165833,572.089111 514.765808,567.020935 
	C515.767944,565.067383 516.849060,563.221069 519.110596,561.832764 
M537.804565,620.499817 
	C537.810486,613.183716 537.881897,605.866882 537.804993,598.551636 
	C537.717773,590.254395 538.153442,581.940857 536.747559,573.684265 
	C535.758301,567.874207 532.684814,564.448669 527.665222,564.072693 
	C522.154175,563.660034 518.877380,566.283569 517.290894,572.603638 
	C516.769592,574.680176 516.388062,576.845398 516.340271,578.978943 
	C515.852417,600.756592 515.842896,622.536133 516.342651,644.314087 
	C516.427185,648.001343 517.053711,651.622253 519.049805,654.800354 
	C522.979492,661.057007 531.481567,660.647705 534.833679,654.050476 
	C535.966919,651.820129 536.389221,649.371582 536.768921,646.883789 
	C538.055786,638.451782 537.720581,629.970581 537.804565,620.499817 
z"/>
<path fill="#000000" opacity="1.000000" stroke="none" 
	d="
M661.102417,556.990845 
	C660.199402,555.608093 659.192139,554.655701 659.216797,553.052673 
	C661.808960,551.928467 662.878418,553.801147 664.073730,555.294800 
	C667.983276,560.179749 669.447754,566.092834 669.956055,572.029785 
	C670.749451,581.295959 671.100159,590.642517 668.682068,599.813232 
	C667.112671,605.765503 664.420654,610.990784 659.195801,614.563599 
	C656.763794,616.226562 656.329712,618.003845 658.398621,620.288330 
	C662.264771,624.557434 663.435181,629.944336 664.429565,635.366333 
	C665.867493,643.207336 667.323303,651.047180 668.591064,658.916626 
	C669.549011,664.862793 670.848694,670.618530 675.479187,675.171631 
	C672.338623,677.624512 670.353149,676.602600 668.876038,674.198914 
	C667.121399,671.343506 666.216309,668.167236 665.622375,664.842957 
	C663.637878,653.736084 661.587402,642.639099 659.376526,631.575378 
	C658.313965,626.258362 655.263916,622.200684 650.482666,619.500183 
	C649.216187,618.784912 647.605652,618.539124 646.826050,616.963318 
	C646.990356,614.994019 648.677185,615.021912 650.037048,614.560059 
	C656.782654,612.268677 661.526611,607.764954 663.689453,601.020142 
	C668.446106,586.186707 667.782349,571.554382 661.102417,556.990845 
z"/>
<path fill="#000000" opacity="1.000000" stroke="none" 
	d="
M676.655518,665.835388 
	C676.660034,629.716919 676.660034,594.076599 676.660034,557.804749 
	C681.454712,559.189880 680.863037,562.056885 680.887085,564.285034 
	C681.059875,580.276062 681.134949,596.268555 681.157959,612.260681 
	C681.185303,631.252136 681.135437,650.243652 681.099548,669.235168 
	C681.096375,670.897522 681.008118,672.565369 680.847961,674.219910 
	C680.724731,675.492981 680.108826,676.465271 678.634399,676.393860 
	C677.017334,676.315613 676.227966,675.384338 676.288818,673.789673 
	C676.384033,671.296631 676.527771,668.805481 676.655518,665.835388 
z"/>
<path fill="#000000" opacity="1.000000" stroke="none" 
	d="
M583.684448,597.000000 
	C583.705994,585.177002 583.686890,573.853577 583.788696,562.531311 
	C583.803467,560.889282 583.044800,558.228333 585.692932,558.149963 
	C588.637756,558.062744 588.098022,560.845581 588.101440,562.698792 
	C588.168579,598.998840 588.190979,635.298950 588.183594,671.599060 
	C588.183228,673.500916 588.594482,676.258667 585.739563,676.172974 
	C582.683899,676.081238 583.768188,673.163025 583.762085,671.432861 
	C583.674744,646.788757 583.691345,622.144348 583.684448,597.000000 
z"/>
<path fill="#000000" opacity="1.000000" stroke="none" 
	d="
M571.654297,653.350037 
	C569.103882,662.123108 566.674927,670.492493 557.402954,675.325378 
	C557.402954,673.952698 557.210266,673.333435 557.430786,673.092712 
	C565.493713,664.291016 568.216248,653.293030 569.435913,641.994446 
	C571.689087,621.120850 571.608154,600.165344 569.490967,579.276306 
	C568.874451,573.192749 567.166199,567.214111 564.411438,561.629333 
	C563.642639,560.070740 562.535828,558.546753 562.758240,556.200500 
	C565.835999,557.026001 566.833679,559.378357 568.004944,561.420410 
	C572.164673,568.672668 573.381470,576.785889 574.092896,584.883240 
	C576.092896,607.649109 575.915222,630.379089 571.654297,653.350037 
z"/>
<path fill="#000000" opacity="1.000000" stroke="none" 
	d="
M628.343262,634.803589 
	C627.583679,633.270996 627.084412,632.011902 626.299194,630.967896 
	C625.350952,629.706970 623.983337,629.023865 622.344421,629.508545 
	C620.806824,629.963318 620.426514,631.346252 620.360352,632.673889 
	C620.203064,635.829834 620.180176,638.994141 620.167236,642.155273 
	C620.127014,651.978699 620.148682,661.802490 620.064514,671.625488 
	C620.049866,673.338684 620.507996,675.825500 617.924011,675.934204 
	C615.122192,676.052124 615.739319,673.460876 615.731140,671.811035 
	C615.660583,657.658691 615.776001,643.504944 615.619446,629.354004 
	C615.576904,625.514282 617.205444,624.503174 620.719116,624.570618 
	C627.285767,624.696716 630.940002,626.849670 632.321106,633.248352 
	C635.159546,646.398804 637.512390,659.654358 640.027100,672.873840 
	C640.275085,674.177429 640.453247,675.762634 638.617371,676.049316 
	C636.690247,676.350220 636.064148,674.904785 635.765015,673.315186 
	C633.738464,662.544922 631.722656,651.772583 629.688354,641.003784 
	C629.319946,639.053284 628.882385,637.115906 628.343262,634.803589 
z"/>
<path fill="#000000" opacity="1.000000" stroke="none" 
	d="
M697.982483,723.197144 
	C709.464050,744.599426 696.913879,765.949097 672.433350,767.284180 
	C667.114136,767.574280 661.783020,767.958862 656.465149,767.864441 
	C651.812988,767.781860 649.628052,769.699585 649.699829,774.294373 
	C649.780273,779.445312 649.780579,784.599121 649.965271,789.746277 
	C650.109314,793.763977 649.022461,795.967468 644.313110,795.526794 
	C640.537537,795.173462 636.670654,795.683960 632.852295,795.933411 
	C629.416809,796.157898 627.633850,795.124084 627.655640,791.223389 
	C627.798279,765.734619 627.799988,740.244934 627.793518,714.755554 
	C627.792664,711.582336 628.703552,709.685425 632.321838,709.767273 
	C646.960449,710.098511 661.639038,708.756714 676.236633,710.731201 
	C685.000916,711.916626 692.463989,715.522095 697.982483,723.197144 
M664.365356,750.991882 
	C665.528870,750.936218 666.694397,750.906860 667.855652,750.820679 
	C674.374084,750.336548 679.197937,746.022644 679.738403,740.210999 
	C680.368530,733.435181 676.713989,728.101624 669.975952,726.630249 
	C667.258545,726.036865 664.346802,726.188049 661.527283,726.233276 
	C649.492432,726.426025 649.888245,724.229187 649.953918,737.736145 
	C650.025696,752.503845 648.193604,750.800293 664.365356,750.991882 
z"/>
</svg>